# xmcd
#
# Track frame offsets:
# 150
# 18870
# 33716
# 48243
# 62039
# 77726
# 90306
# 103561
# 118575
# 132349
# 146328
# 162250
# 176512
# 191026
# 207097
# 222757
# 236660
# 246215
# 257672
# 267342
#
# Disc length: 3739 seconds
#
#
# Revision: 0
# Processed by: cddbd v1.5.2PL0 Copyright (c) Steve Scherf et al.
# Submitted via: FreeRIP 2.944 
#
DISCID=130e9914
DTITLE=Bonde do Forro - Eletrico - 
DYEAR=2008
DGENRE=forro
TTITLE0=Vira e Mexe
TTITLE1=Agarra Agarrra (eletrico)
TTITLE2=A nossa Historia
TTITLE3=Cabaré Ambulante
TTITLE4=Será
TTITLE5=Sempre seu homem
TTITLE6=Milk Shake
TTITLE7=Inevitável
TTITLE8=Agarra Agarra
TTITLE9=Diz pro meu olhar
TTITLE10=Teu sorriso, A tua voz
TTITLE11=Agora vai
TTITLE12=Pra te dizer
TTITLE13=Passou da conta
TTITLE14=Primeiro amor
TTITLE15=Por um minuto
TTITLE16=Quer namorar comigo
TTITLE17=Evidências
TTITLE18=É o amor
TTITLE19=Você vai ver
EXTD=
EXTT0=
EXTT1=
EXTT2=
EXTT3=
EXTT4=
EXTT5=
EXTT6=
EXTT7=
EXTT8=
EXTT9=
EXTT10=
EXTT11=
EXTT12=
EXTT13=
EXTT14=
EXTT15=
EXTT16=
EXTT17=
EXTT18=
EXTT19=
PLAYORDER=
